<svg xmlns="http://www.w3.org/2000/svg">
  <symbol id="bluesky-icon" viewBox="0 0 16 17">
    <g clip-path="url(#bluesky-clip)">
      <path fill="#08060d"
        d="M7.75 7.735c-.693-1.348-2.58-3.86-4.334-5.097-1.68-1.187-2.32-.981-2.74-.79C.188 2.065.1 2.812.1 3.251s.241 3.602.398 4.13c.52 1.744 2.367 2.333 4.07 2.145-2.495.37-4.71 1.278-1.805 4.512 3.196 3.309 4.38-.71 4.987-2.746.608 2.036 1.307 5.91 4.93 2.746 2.72-2.746.747-4.143-1.747-4.512 1.702.189 3.55-.4 4.07-2.145.156-.528.397-3.691.397-4.13s-.088-1.186-.575-1.406c-.42-.19-1.06-.395-2.741.79-1.755 1.24-3.64 3.752-4.334 5.099" />
    </g>
    <defs>
      <clipPath id="bluesky-clip">
        <path fill="#fff" d="M.1.85h15.3v15.3H.1z" />
      </clipPath>
    </defs>
  </symbol>
  <symbol id="discord-icon" viewBox="0 0 20 19">
    <path fill="#08060d"
      d="M16.224 3.768a14.5 14.5 0 0 0-3.67-1.153c-.158.286-.343.67-.47.976a13.5 13.5 0 0 0-4.067 0c-.128-.306-.317-.69-.476-.976A14.4 14.4 0 0 0 3.868 3.77C1.546 7.28.916 10.703 1.231 14.077a14.7 14.7 0 0 0 4.5 2.306q.545-.748.965-1.587a9.5 9.5 0 0 1-1.518-.74q.191-.14.372-.293c2.927 1.369 6.107 1.369 8.999 0q.183.152.372.294-.723.437-1.52.74.418.838.963 1.588a14.6 14.6 0 0 0 4.504-2.308c.37-3.911-.63-7.302-2.644-10.309m-9.13 8.234c-.878 0-1.599-.82-1.599-1.82 0-.998.705-1.82 1.6-1.82.894 0 1.614.82 1.599 1.82.001 1-.705 1.82-1.6 1.82m5.91 0c-.878 0-1.599-.82-1.599-1.82 0-.998.705-1.82 1.6-1.82.893 0 1.614.82 1.599 1.82 0 1-.706 1.82-1.6 1.82" />
  </symbol>
  <symbol id="documentation-icon" viewBox="0 0 21 20">
    <path fill="none" stroke="#aa3bff" stroke-linecap="round" stroke-linejoin="round"
      stroke-width="1.35"
      d="m15.5 13.333 1.533 1.322c.645.555.967.833.967 1.178s-.322.623-.967 1.179L15.5 18.333m-3.333-5-1.534 1.322c-.644.555-.966.833-.966 1.178s.322.623.966 1.179l1.534 1.321" />
    <path fill="none" stroke="#aa3bff" stroke-linecap="round" stroke-linejoin="round"
      stroke-width="1.35"
      d="M17.167 10.836v-4.32c0-1.41 0-2.117-.224-2.68-.359-.906-1.118-1.621-2.08-1.96-.599-.21-1.349-.21-2.848-.21-2.623 0-3.935 0-4.983.369-1.684.591-3.013 1.842-3.641 3.428C3 6.449 3 7.684 3 10.154v2.122c0 2.558 0 3.838.706 4.726q.306.383.713.671c.76.536 1.79.64 3.581.66" />
    <path fill="none" stroke="#aa3bff" stroke-linecap="round" stroke-linejoin="round"
      stroke-width="1.35"
      d="M3 10a2.78 2.78 0 0 1 2.778-2.778c.555 0 1.209.097 1.748-.047.48-.129.854-.503.982-.982.145-.54.048-1.194.048-1.749a2.78 2.78 0 0 1 2.777-2.777" />
  </symbol>
  <symbol id="github-icon" viewBox="0 0 19 19">
    <path fill="#08060d" fill-rule="evenodd"
      d="M9.356 1.85C5.05 1.85 1.57 5.356 1.57 9.694a7.84 7.84 0 0 0 5.324 7.44c.387.079.528-.168.528-.376 0-.182-.013-.805-.013-1.454-2.165.467-2.616-.935-2.616-.935-.349-.91-.864-1.143-.864-1.143-.71-.48.051-.48.051-.48.787.051 1.2.805 1.2.805.695 1.194 1.817.857 2.268.649.064-.507.27-.857.49-1.052-1.728-.182-3.545-.857-3.545-3.87 0-.857.31-1.558.8-2.104-.078-.195-.349-1 .077-2.078 0 0 .657-.208 2.14.805a7.5 7.5 0 0 1 1.946-.26c.657 0 1.328.092 1.946.26 1.483-1.013 2.14-.805 2.14-.805.426 1.078.155 1.883.078 2.078.502.546.799 1.247.799 2.104 0 3.013-1.818 3.675-3.558 3.87.284.247.528.714.528 1.454 0 1.052-.012 1.896-.012 2.156 0 .208.142.455.528.377a7.84 7.84 0 0 0 5.324-7.441c.013-4.338-3.48-7.844-7.773-7.844"
      clip-rule="evenodd" />
  </symbol>
  <symbol id="social-icon" viewBox="0 0 20 20">
    <path fill="none" stroke="#aa3bff" stroke-linecap="round" stroke-linejoin="round"
      stroke-width="1.35" d="M12.5 6.667a4.167 4.167 0 1 0-8.334 0 4.167 4.167 0 0 0 8.334 0" />
    <path fill="none" stroke="#aa3bff" stroke-linecap="round" stroke-linejoin="round"
      stroke-width="1.35"
      d="M2.5 16.667a5.833 5.833 0 0 1 8.75-5.053m3.837.474.513 1.035c.07.144.257.282.414.309l.93.155c.596.1.736.536.307.965l-.723.73a.64.64 0 0 0-.152.531l.207.903c.164.715-.213.991-.84.618l-.872-.52a.63.63 0 0 0-.577 0l-.872.52c-.624.373-1.003.094-.84-.618l.207-.903a.64.64 0 0 0-.152-.532l-.723-.729c-.426-.43-.289-.864.306-.964l.93-.156a.64.64 0 0 0 .412-.31l.513-1.034c.28-.562.735-.562 1.012 0" />
  </symbol>
  <symbol id="x-icon" viewBox="0 0 19 19">
    <path fill="#08060d" fill-rule="evenodd"
      d="M1.893 1.98c.052.072 1.245 1.769 2.653 3.77l2.892 4.114c.183.261.333.48.333.486s-.068.089-.152.183l-.522.593-.765.867-3.597 4.087c-.375.426-.734.834-.798.905a1 1 0 0 0-.118.148c0 .01.236.017.664.017h.663l.729-.83c.4-.457.796-.906.879-.999a692 692 0 0 0 1.794-2.038c.034-.037.301-.34.594-.675l.551-.624.345-.392a7 7 0 0 1 .34-.374c.006 0 .93 1.306 2.052 2.903l2.084 2.965.045.063h2.275c1.87 0 2.273-.003 2.266-.021-.008-.02-1.098-1.572-3.894-5.547-2.013-2.862-2.28-3.246-2.273-3.266.008-.019.282-.332 2.085-2.38l2-2.274 1.567-1.782c.022-.028-.016-.03-.65-.03h-.674l-.3.342a871 871 0 0 1-1.782 2.025c-.067.075-.405.458-.75.852a100 100 0 0 1-.803.91c-.148.172-.299.344-.99 1.127-.304.343-.32.358-.345.327-.015-.019-.904-1.282-1.976-2.808L6.365 1.85H1.8zm1.782.91 8.078 11.294c.772 1.08 1.413 1.973 1.425 1.984.016.017.241.02 1.05.017l1.03-.004-2.694-3.766L7.796 5.75 5.722 2.852l-1.039-.004-1.039-.004z"
      clip-rule="evenodd" />
  </symbol>
  <symbol id="terminal-icon" viewBox="0 -960 960 960">
    <path fill="currentColor"
      d="M140-160q-24 0-42-18t-18-42v-520q0-24 18-42t42-18h680q24 0 42 18t18 42v520q0 24-18 42t-42 18H140Zm0-60h680v-436H140v436Zm160-72-42-42 103-104-104-104 43-42 146 146-146 146Zm190 4v-60h220v60H490Z" />
  </symbol>
  <symbol id="javascript-icon" viewBox="0 -960 960 960">
    <path fill="currentColor"
      d="M274-360q-15 0-24.5-9.5T240-394v-66h48v52h84v-192h48v206q0 15-9.5 24.5T386-360H274Zm240 0q-15 0-24.5-9.5T480-394v-46h48v32h104v-53H514q-14 0-24-10t-10-24v-71q0-15 9.5-24.5T514-600h132q15 0 24.5 9.5T680-566v46h-48v-32H528v53h118q14 0 24 10t10 24v71q0 15-9.5 24.5T646-360H514Z" />
  </symbol>
  <symbol id="linkedin-icon" viewBox="0 0 24 24">
    <path fill="#08060d"
      d="M19 3a2 2 0 0 1 2 2v14a2 2 0 0 1-2 2H5a2 2 0 0 1-2-2V5a2 2 0 0 1 2-2h14m-.5 15.5v-5.3a3.26 3.26 0 0 0-3.26-3.26c-.85 0-1.84.52-2.32 1.3v-1.11h-2.79v8.37h2.79v-4.93c0-.77.62-1.4 1.39-1.4a1.4 1.4 0 0 1 1.4 1.4v4.93h2.69M6.88 8.56a1.68 1.68 0 0 0 1.68-1.68c0-.93-.75-1.69-1.68-1.69a1.69 1.69 0 0 0-1.69 1.69c0 .93.76 1.68 1.69 1.68m1.39 9.94v-8.37H5.5v8.37h2.77z" />
  </symbol>
  <symbol id="arrow-down-icon" viewBox="0 -960 960 960">
    <path fill="currentColor"
      d="M480-240 240-480l56-56 144 144v-368h80v368l144-144 56 56-240 240Z" />
  </symbol>
  <symbol id="arrow-up-icon" viewBox="0 -960 960 960">
    <path fill="currentColor"
      d="M440-240v-368L296-464l-56-56 240-240 240 240-56 56-144-144v368h-80Z" />
  </symbol>
  <symbol id="sg-icon" x="0px" y="0px" viewBox="52.67 0 42 42.02">
    <g>
      <rect x="52.6744461" y="0.0000336"
        style="fill: rgb(230, 0, 40); --darkreader-inline-fill: #ff2b50;" width="42.0002365"
        height="18.9000759" data-darkreader-inline-fill="" />
      <rect x="52.6744804" y="23.0999565" width="42.000206" height="18.9000759" />
      <rect x="52.6744461" y="18.9000263"
        style="fill: rgb(255, 255, 255); --darkreader-inline-fill: #e8e6e3;" width="42.0002365"
        height="4.2000189" data-darkreader-inline-fill="" />
    </g>
  </symbol>
  <symbol id="nfcu-icon" viewBox="0 0 36.68 36.68">
    <path fill="currentColor" data-name="Path 356"
      d="M36.68 18.338A18.315 18.315 0 0 0 19.972.136 6.614 6.614 0 0 0 18.342 0a5.093 5.093 0 0 0-1.494.136A18.262 18.262 0 0 0 3.807 7.2l-.407.543-.272.408a18.234 18.234 0 0 0 5.026 25.4 17.526 17.526 0 0 0 8.558 2.988 13.092 13.092 0 0 0 3.26 0A18.315 18.315 0 0 0 36.68 18.338zm-9.916 13.584h-2.581a23.178 23.178 0 0 0 1.766-5.162h4.211a18.9 18.9 0 0 1-3.4 5.162zM6.388 26.761H10.6a23.177 23.177 0 0 0 1.766 5.162H9.92a19.344 19.344 0 0 1-3.532-5.162zm-5.162-7.879h2.309a18.633 18.633 0 0 0 1.223 6.656H2.72a15.9 15.9 0 0 1-1.494-6.656zM6.66 9.509a16.452 16.452 0 0 1 3.26-4.755h2.58c-.543 1.358-1.087 2.581-1.494 3.939l-.136.543-.136.543v.136H6.388zm23.5.408h-4.211a23.178 23.178 0 0 0-1.766-5.162h2.581a16.229 16.229 0 0 1 3.396 5.161zm5.3 7.879h-2.311a18.633 18.633 0 0 0-1.223-6.656h1.9a18.441 18.441 0 0 1 1.632 6.66zm-3.532 0H26.9a35.671 35.671 0 0 0-.679-6.656H30.7a18.1 18.1 0 0 1 1.226 6.66zM11.957 9.509a20.052 20.052 0 0 1 1.766-4.754h3.939v5.161h-5.705zm1.223-5.841h-1.9A9.486 9.486 0 0 1 14.538 1.9a8.721 8.721 0 0 0-1.358 1.768zm4.62-2.445v2.445h-3.26a5.423 5.423 0 0 1 3.26-2.445zm1.087 2.445V1.223a5.843 5.843 0 0 1 3.26 2.445zm3.938 1.222a21.262 21.262 0 0 1 1.9 5.162h-5.84V4.89zM17.8 11.139V17.8h-6.929a35.671 35.671 0 0 1 .679-6.656h6.25zm0 7.743v6.656h-6.114a27.07 27.07 0 0 1-.815-6.656zm0 7.879v5.162h-3.941a22.507 22.507 0 0 1-1.9-5.026zm0 6.249v2.445a5.843 5.843 0 0 1-3.26-2.445zm1.087 0h3.26a5.423 5.423 0 0 1-3.26 2.445zm0-1.087v-5.162h5.841a23.575 23.575 0 0 1-1.9 5.162zm0-6.249v-6.656h6.792A35.67 35.67 0 0 1 25 25.674zm0-7.879v-6.656H25a36.882 36.882 0 0 1 .679 6.656zM23.5 3.668a16.481 16.481 0 0 0-1.358-1.9 9.8 9.8 0 0 1 3.26 1.9zm-13.037 7.471a36.882 36.882 0 0 0-.679 6.661H4.758a22.173 22.173 0 0 1 1.223-6.656h4.483zM3.535 17.8H1.226a15.9 15.9 0 0 1 1.494-6.661h2.038A21.418 21.418 0 0 0 3.535 17.8zm1.223 1.087h5.026a35.67 35.67 0 0 0 .679 6.656H5.981a18.1 18.1 0 0 1-1.223-6.661zm8.422 14.122a8.721 8.721 0 0 0 1.358 1.766 12.505 12.505 0 0 1-3.26-1.766zm10.324 0h1.9a10.909 10.909 0 0 1-3.26 1.766 8.721 8.721 0 0 0 1.356-1.766zm2.717-7.335a36.882 36.882 0 0 0 .679-6.656h5.026a22.173 22.173 0 0 1-1.226 6.656zm6.928-6.792h2.309a18.441 18.441 0 0 1-1.63 6.656H31.79a21.5 21.5 0 0 0 1.358-6.656zm.136-8.965h-1.9a20.154 20.154 0 0 0-3.124-5.162h.539a17.808 17.808 0 0 1 4.483 5.162zM7.746 4.89h.544a17.259 17.259 0 0 0-2.445 3.668l-.272.408-.273.543-.136.408H3.4a14.318 14.318 0 0 1 .95-1.495A16.816 16.816 0 0 1 7.746 4.89zM3.4 26.761h1.765a20.154 20.154 0 0 0 3.125 5.161h-.544A17.621 17.621 0 0 1 3.4 26.761zm6.113 6.249zM28.8 31.922h-.543a15.47 15.47 0 0 0 3.124-5.162h1.766a14.286 14.286 0 0 1-4.347 5.162z"
      transform="translate(.01)"></path>
  </symbol>
  <symbol id="ag2r-icon" viewBox="0 0 50 50">
    <g transform="translate(-210.71184,-365.74339)">
      <g transform="matrix(1.25,0,0,-1.25,220.03959,404.24927)">
        <path fill="#40c1e6" d="M 0,0 2.105,2.105 11.671,-7.463 0,0 z" />
      </g>
      <g transform="matrix(1.25,0,0,-1.25,249.21809,375.06964)">
        <path fill="#4d2b1a" d="M 0,0 -2.104,-2.105 -11.672,7.461 0,0 z" />
      </g>
      <g transform="matrix(1.25,0,0,-1.25,246.58809,377.70027)">
        <path fill="#40c1e6" d="M 0,0 9.566,-9.567 0,-19.135 -19.134,0 -21.239,2.105 -9.568,9.565 0,0 z" />
      </g>
      <g transform="matrix(1.25,0,0,-1.25,246.58809,401.61864)">
        <path fill="#4d2b1a" d="M 0,0 2.104,-2.105 -9.568,-9.567 -19.134,0 -28.701,9.567 -19.134,19.135 0,0 z" />
      </g>
    </g>
  </symbol>
</svg>